<svg width="1090" height="400" viewBox="0 0 1090 400" fill="none" xmlns="http://www.w3.org/2000/svg">
<path d="M50 183.333V283.333H83.3333L100 258.333L150 283.333H316.667C329.927 283.333 342.645 278.065 352.022 268.689C361.399 259.312 366.667 246.594 366.667 233.333C366.667 220.073 361.399 207.355 352.022 197.978C342.645 188.601 329.927 183.333 316.667 183.333H150L100 208.333L83.3333 183.333H50Z" stroke="#0096C7" stroke-width="15" stroke-linecap="round" stroke-linejoin="round"/>
<path d="M283.333 183.333L266.667 133.333H183.333L166.667 183.333" stroke="#0096C7" stroke-width="15" stroke-linecap="round" stroke-linejoin="round"/>
<path d="M216.667 133.333V100C216.667 95.5797 218.423 91.3405 221.548 88.2149C224.674 85.0893 228.913 83.3333 233.333 83.3333H250" stroke="#0096C7" stroke-width="15" stroke-linecap="round" stroke-linejoin="round"/>
<circle cx="289.922" cy="233.075" r="17.7222" stroke="#0096C7" stroke-width="9"/>
<circle cx="233.075" cy="233.075" r="17.7222" stroke="#0096C7" stroke-width="9"/>
<circle cx="176.227" cy="233.075" r="17.7222" stroke="#0096C7" stroke-width="9"/>
<path d="M437.696 277.868C431.909 277.868 426.701 276.876 422.072 274.892C417.443 272.825 413.805 269.932 411.16 266.212C408.515 262.492 407.192 258.152 407.192 253.192H422.32C422.651 256.912 424.097 259.971 426.66 262.368C429.305 264.765 432.984 265.964 437.696 265.964C442.573 265.964 446.376 264.807 449.104 262.492C451.832 260.095 453.196 257.036 453.196 253.316C453.196 250.423 452.328 248.067 450.592 246.248C448.939 244.429 446.831 243.024 444.268 242.032C441.788 241.04 438.316 239.965 433.852 238.808C428.231 237.32 423.643 235.832 420.088 234.344C416.616 232.773 413.64 230.376 411.16 227.152C408.68 223.928 407.44 219.629 407.44 214.256C407.44 209.296 408.68 204.956 411.16 201.236C413.64 197.516 417.112 194.664 421.576 192.68C426.04 190.696 431.207 189.704 437.076 189.704C445.425 189.704 452.245 191.812 457.536 196.028C462.909 200.161 465.885 205.865 466.464 213.14H450.84C450.592 209.999 449.104 207.312 446.376 205.08C443.648 202.848 440.052 201.732 435.588 201.732C431.537 201.732 428.231 202.765 425.668 204.832C423.105 206.899 421.824 209.875 421.824 213.76C421.824 216.405 422.609 218.596 424.18 220.332C425.833 221.985 427.9 223.308 430.38 224.3C432.86 225.292 436.249 226.367 440.548 227.524C446.252 229.095 450.881 230.665 454.436 232.236C458.073 233.807 461.132 236.245 463.612 239.552C466.175 242.776 467.456 247.116 467.456 252.572C467.456 256.953 466.257 261.087 463.86 264.972C461.545 268.857 458.115 271.999 453.568 274.396C449.104 276.711 443.813 277.868 437.696 277.868ZM546.012 208.676V277H531.876V268.94C529.644 271.751 526.709 273.983 523.072 275.636C519.517 277.207 515.715 277.992 511.664 277.992C506.291 277.992 501.455 276.876 497.156 274.644C492.94 272.412 489.592 269.105 487.112 264.724C484.715 260.343 483.516 255.052 483.516 248.852V208.676H497.528V246.744C497.528 252.861 499.057 257.573 502.116 260.88C505.175 264.104 509.349 265.716 514.64 265.716C519.931 265.716 524.105 264.104 527.164 260.88C530.305 257.573 531.876 252.861 531.876 246.744V208.676H546.012ZM578.799 218.844C581.197 215.537 584.462 212.851 588.595 210.784C592.811 208.635 597.482 207.56 602.607 207.56C608.642 207.56 614.098 209.007 618.975 211.9C623.853 214.793 627.697 218.927 630.507 224.3C633.318 229.591 634.723 235.667 634.723 242.528C634.723 249.389 633.318 255.548 630.507 261.004C627.697 266.377 623.811 270.593 618.851 273.652C613.974 276.628 608.559 278.116 602.607 278.116C597.317 278.116 592.605 277.083 588.471 275.016C584.421 272.949 581.197 270.304 578.799 267.08V277H564.663V185.24H578.799V218.844ZM620.339 242.528C620.339 237.816 619.347 233.765 617.363 230.376C615.462 226.904 612.899 224.3 609.675 222.564C606.534 220.745 603.145 219.836 599.507 219.836C595.953 219.836 592.563 220.745 589.339 222.564C586.198 224.383 583.635 227.028 581.651 230.5C579.75 233.972 578.799 238.064 578.799 242.776C578.799 247.488 579.75 251.621 581.651 255.176C583.635 258.648 586.198 261.293 589.339 263.112C592.563 264.931 595.953 265.84 599.507 265.84C603.145 265.84 606.534 264.931 609.675 263.112C612.899 261.211 615.462 258.483 617.363 254.928C619.347 251.373 620.339 247.24 620.339 242.528ZM731.41 207.56C736.784 207.56 741.578 208.676 745.794 210.908C750.093 213.14 753.441 216.447 755.838 220.828C758.318 225.209 759.558 230.5 759.558 236.7V277H745.546V238.808C745.546 232.691 744.017 228.02 740.958 224.796C737.9 221.489 733.725 219.836 728.434 219.836C723.144 219.836 718.928 221.489 715.786 224.796C712.728 228.02 711.198 232.691 711.198 238.808V277H697.186V238.808C697.186 232.691 695.657 228.02 692.598 224.796C689.54 221.489 685.365 219.836 680.074 219.836C674.784 219.836 670.568 221.489 667.426 224.796C664.368 228.02 662.838 232.691 662.838 238.808V277H648.702V208.676H662.838V216.488C665.153 213.677 668.088 211.487 671.642 209.916C675.197 208.345 679 207.56 683.05 207.56C688.506 207.56 693.384 208.717 697.682 211.032C701.981 213.347 705.288 216.695 707.602 221.076C709.669 216.943 712.893 213.677 717.274 211.28C721.656 208.8 726.368 207.56 731.41 207.56ZM772.834 242.528C772.834 235.667 774.239 229.591 777.05 224.3C779.943 219.009 783.829 214.917 788.706 212.024C793.666 209.048 799.122 207.56 805.074 207.56C810.447 207.56 815.118 208.635 819.086 210.784C823.137 212.851 826.361 215.455 828.758 218.596V208.676H843.018V277H828.758V266.832C826.361 270.056 823.095 272.743 818.962 274.892C814.829 277.041 810.117 278.116 804.826 278.116C798.957 278.116 793.583 276.628 788.706 273.652C783.829 270.593 779.943 266.377 777.05 261.004C774.239 255.548 772.834 249.389 772.834 242.528ZM828.758 242.776C828.758 238.064 827.766 233.972 825.782 230.5C823.881 227.028 821.359 224.383 818.218 222.564C815.077 220.745 811.687 219.836 808.05 219.836C804.413 219.836 801.023 220.745 797.882 222.564C794.741 224.3 792.178 226.904 790.194 230.376C788.293 233.765 787.342 237.816 787.342 242.528C787.342 247.24 788.293 251.373 790.194 254.928C792.178 258.483 794.741 261.211 797.882 263.112C801.106 264.931 804.495 265.84 808.05 265.84C811.687 265.84 815.077 264.931 818.218 263.112C821.359 261.293 823.881 258.648 825.782 255.176C827.766 251.621 828.758 247.488 828.758 242.776ZM875.721 218.596C877.788 215.124 880.516 212.437 883.905 210.536C887.377 208.552 891.469 207.56 896.181 207.56V222.192H892.585C887.046 222.192 882.83 223.597 879.937 226.408C877.126 229.219 875.721 234.096 875.721 241.04V277H861.585V208.676H875.721V218.596ZM916.367 199.624C913.804 199.624 911.655 198.756 909.919 197.02C908.183 195.284 907.315 193.135 907.315 190.572C907.315 188.009 908.183 185.86 909.919 184.124C911.655 182.388 913.804 181.52 916.367 181.52C918.847 181.52 920.955 182.388 922.691 184.124C924.427 185.86 925.295 188.009 925.295 190.572C925.295 193.135 924.427 195.284 922.691 197.02C920.955 198.756 918.847 199.624 916.367 199.624ZM923.311 208.676V277H909.175V208.676H923.311ZM976.342 207.56C981.716 207.56 986.51 208.676 990.726 210.908C995.025 213.14 998.373 216.447 1000.77 220.828C1003.17 225.209 1004.37 230.5 1004.37 236.7V277H990.354V238.808C990.354 232.691 988.825 228.02 985.766 224.796C982.708 221.489 978.533 219.836 973.242 219.836C967.952 219.836 963.736 221.489 960.594 224.796C957.536 228.02 956.006 232.691 956.006 238.808V277H941.87V208.676H956.006V216.488C958.321 213.677 961.256 211.487 964.81 209.916C968.448 208.345 972.292 207.56 976.342 207.56ZM1085.02 241.164C1085.02 243.727 1084.85 246.041 1084.52 248.108H1032.32C1032.73 253.564 1034.76 257.945 1038.39 261.252C1042.03 264.559 1046.49 266.212 1051.79 266.212C1059.39 266.212 1064.76 263.029 1067.91 256.664H1083.16C1081.09 262.947 1077.33 268.113 1071.87 272.164C1066.5 276.132 1059.8 278.116 1051.79 278.116C1045.25 278.116 1039.39 276.669 1034.18 273.776C1029.05 270.8 1025 266.667 1022.03 261.376C1019.13 256.003 1017.69 249.803 1017.69 242.776C1017.69 235.749 1019.09 229.591 1021.9 224.3C1024.79 218.927 1028.8 214.793 1033.93 211.9C1039.14 209.007 1045.09 207.56 1051.79 207.56C1058.23 207.56 1063.98 208.965 1069.02 211.776C1074.06 214.587 1077.99 218.555 1080.8 223.68C1083.61 228.723 1085.02 234.551 1085.02 241.164ZM1070.26 236.7C1070.18 231.492 1068.32 227.317 1064.68 224.176C1061.04 221.035 1056.54 219.464 1051.17 219.464C1046.29 219.464 1042.11 221.035 1038.64 224.176C1035.17 227.235 1033.1 231.409 1032.44 236.7H1070.26Z" fill="#0096C7"/>
</svg>
